<?xml version="1.0" encoding="UTF-8"?>
<svg xmlns="http://www.w3.org/2000/svg" xmlns:xlink="http://www.w3.org/1999/xlink" id="Codasip_logo__000000" data-name="Codasip_logo_#000000" width="150.114" height="58.302" viewBox="0 0 150.114 58.302"><defs><clipPath id="clip-path"><rect width="150.114" height="58.302" transform="translate(-2 -1)"/></clipPath></defs><g transform="translate(2 1)" clip-path="url(#clip-path)"><path d="M142.039,9.186A9.186,9.186,0,1,1,132.854,0a9.186,9.186,0,0,1,9.186,9.186" transform="translate(-105.652 0.176)"/><path d="M18.371,132.854a9.186,9.186,0,1,1-9.186-9.186,9.186,9.186,0,0,1,9.186,9.186" transform="translate(-0.355 -105.121)"/><path d="M142.039,256.522a9.186,9.186,0,1,1-9.186-9.186,9.186,9.186,0,0,1,9.186,9.186" transform="translate(-105.652 -210.418)"/><path d="M318.2,137.1a7.008,7.008,0,0,1-7.609-7.719V124.89a7.008,7.008,0,0,1,7.609-7.719,6.574,6.574,0,0,1,7.2,7.144v.164h-2.929v-.246a4.713,4.713,0,0,0-1.054-3.175,4,4,0,0,0-3.216-1.232,4.437,4.437,0,0,0-3.421,1.328,5.2,5.2,0,0,0-1.232,3.682v4.6a5.214,5.214,0,0,0,1.232,3.668,4.412,4.412,0,0,0,3.421,1.341,3.979,3.979,0,0,0,3.216-1.246,4.725,4.725,0,0,0,1.054-3.161v-.465h2.929v.383a6.574,6.574,0,0,1-7.2,7.144" transform="translate(-264.803 -99.589)"/><path d="M435.488,169.574a7.561,7.561,0,0,1-3.6-.835,6.131,6.131,0,0,1-2.477-2.4,7.248,7.248,0,0,1-.9-3.7v-.411a7.172,7.172,0,0,1,.9-3.681,6.254,6.254,0,0,1,2.477-2.4,7.467,7.467,0,0,1,3.6-.848,7.551,7.551,0,0,1,3.613.848,6.234,6.234,0,0,1,2.491,2.4,7.172,7.172,0,0,1,.9,3.681v.411a7.249,7.249,0,0,1-.9,3.7,6.112,6.112,0,0,1-2.491,2.4,7.646,7.646,0,0,1-3.613.835m0-2.518a4.042,4.042,0,0,0,3.025-1.191,4.52,4.52,0,0,0,1.163-3.3v-.246a4.55,4.55,0,0,0-1.15-3.3,4.42,4.42,0,0,0-6.036,0,4.518,4.518,0,0,0-1.163,3.3v.246a4.518,4.518,0,0,0,1.163,3.3,4.006,4.006,0,0,0,3,1.191" transform="translate(-365.207 -132.065)"/><path d="M545.279,139.294a6.046,6.046,0,0,1-5.379-3.189,7.562,7.562,0,0,1-.862-3.736v-.411a7.683,7.683,0,0,1,.848-3.722,5.96,5.96,0,0,1,2.272-2.381,6.134,6.134,0,0,1,3.121-.821,6.413,6.413,0,0,1,2.2.328,4.608,4.608,0,0,1,1.464.835,4,4,0,0,1,.876,1.054h.438v-7.5h2.819v19.16h-2.765V137h-.438a5.1,5.1,0,0,1-1.574,1.588,5.391,5.391,0,0,1-3.024.711m.793-2.464a4.122,4.122,0,0,0,3.025-1.177,4.524,4.524,0,0,0,1.191-3.367v-.246a4.518,4.518,0,0,0-1.177-3.339,4.456,4.456,0,0,0-6.035,0,4.486,4.486,0,0,0-1.191,3.339v.246a4.524,4.524,0,0,0,1.191,3.367,4.086,4.086,0,0,0,3,1.177" transform="translate(-459.318 -101.786)"/><path d="M657.948,169.574a6.44,6.44,0,0,1-2.587-.493,4.183,4.183,0,0,1-1.807-1.45,3.952,3.952,0,0,1-.671-2.327,3.813,3.813,0,0,1,.671-2.313,4.1,4.1,0,0,1,1.834-1.382,7.075,7.075,0,0,1,2.642-.465h4.106v-.876a2.554,2.554,0,0,0-.711-1.888,2.983,2.983,0,0,0-2.19-.712,3.226,3.226,0,0,0-2.217.684A3.279,3.279,0,0,0,656,160.13l-2.628-.849a5.708,5.708,0,0,1,1.054-1.985,5.226,5.226,0,0,1,1.93-1.437,6.977,6.977,0,0,1,2.9-.547,5.993,5.993,0,0,1,4.133,1.341,4.829,4.829,0,0,1,1.506,3.8v5.556q0,.821.766.821h1.15v2.354h-2.108a2.383,2.383,0,0,1-1.56-.493,1.64,1.64,0,0,1-.6-1.341v-.082h-.411a6.483,6.483,0,0,1-.657.958,3.519,3.519,0,0,1-1.286.944,5.354,5.354,0,0,1-2.245.4m.411-2.326a3.847,3.847,0,0,0,2.737-.972,3.472,3.472,0,0,0,1.04-2.668v-.274h-3.941a3.089,3.089,0,0,0-1.807.479,1.61,1.61,0,0,0-.684,1.409,1.765,1.765,0,0,0,.712,1.478,3.111,3.111,0,0,0,1.943.548" transform="translate(-556.252 -132.065)"/><path d="M765.183,169.574a7.448,7.448,0,0,1-4.27-1.15,4.946,4.946,0,0,1-2.08-3.476l2.628-.63a4.09,4.09,0,0,0,.739,1.779,2.816,2.816,0,0,0,1.3.931,5.049,5.049,0,0,0,1.683.274,3.509,3.509,0,0,0,2.066-.52,1.584,1.584,0,0,0,.725-1.341,1.284,1.284,0,0,0-.684-1.2,6.816,6.816,0,0,0-2.025-.63l-.931-.164a12.06,12.06,0,0,1-2.491-.712,4.357,4.357,0,0,1-1.779-1.287,3.266,3.266,0,0,1-.657-2.107,3.48,3.48,0,0,1,1.423-2.97,6.2,6.2,0,0,1,3.778-1.054,6.36,6.36,0,0,1,3.736,1.027,4.67,4.67,0,0,1,1.9,2.778l-2.628.739a2.529,2.529,0,0,0-1.04-1.738,3.6,3.6,0,0,0-1.971-.506,3.309,3.309,0,0,0-1.807.424,1.342,1.342,0,0,0-.657,1.191,1.3,1.3,0,0,0,.643,1.2,5.146,5.146,0,0,0,1.738.575l.958.164a15.3,15.3,0,0,1,2.655.684,4.411,4.411,0,0,1,1.9,1.259,3.267,3.267,0,0,1,.7,2.19,3.7,3.7,0,0,1-1.506,3.148,6.628,6.628,0,0,1-4.051,1.122" transform="translate(-646.462 -132.065)"/><path d="M859.536,123.582a1.929,1.929,0,0,1-1.382-.534,1.983,1.983,0,0,1,0-2.764,2.074,2.074,0,0,1,2.778,0,2.019,2.019,0,0,1,0,2.764,1.917,1.917,0,0,1-1.4.534m-1.423,1.834h2.819v13.494h-2.819Z" transform="translate(-730.55 -101.785)"/><path d="M905.477,174.665V155.7h2.765v1.943h.438a4.98,4.98,0,0,1,1.574-1.615,5.389,5.389,0,0,1,3.025-.712,6,6,0,0,1,5.378,3.189,7.567,7.567,0,0,1,.862,3.736v.411a7.667,7.667,0,0,1-.848,3.736,5.985,5.985,0,0,1-2.272,2.367,6.136,6.136,0,0,1-3.12.821,6.532,6.532,0,0,1-2.217-.328,4.244,4.244,0,0,1-1.451-.835,4.818,4.818,0,0,1-.876-1.054H908.3v7.308Zm6.98-7.555a4.111,4.111,0,0,0,3.038-1.177,4.556,4.556,0,0,0,1.177-3.367v-.246a4.486,4.486,0,0,0-1.191-3.339,4.44,4.44,0,0,0-6.022,0,4.487,4.487,0,0,0-1.19,3.339v.246a4.524,4.524,0,0,0,1.19,3.367,4.087,4.087,0,0,0,3,1.177" transform="translate(-771.321 -132.065)"/></g></svg>